<svg xmlns="http://www.w3.org/2000/svg" width="1440" height="900" viewBox="0 0 1440 900" role="img" aria-labelledby="title desc">
  <title id="title">Deployments dashboard screenshot placeholder</title>
  <desc id="desc">Placeholder image for the InsForge Deployments dashboard.</desc>
  <rect width="1440" height="900" fill="#f8fafc"/>
  <rect x="64" y="64" width="1312" height="772" rx="28" fill="#ffffff" stroke="#d7dee8"/>
  <rect x="64" y="64" width="220" height="772" rx="28" fill="#111827"/>
  <text x="104" y="130" fill="#f9fafb" font-family="Inter, Arial, sans-serif" font-size="30" font-weight="700">Deployments</text>
  <rect x="104" y="178" width="138" height="38" rx="10" fill="#16a34a"/>
  <text x="128" y="203" fill="#ffffff" font-family="Inter, Arial, sans-serif" font-size="16">Overview</text>
  <text x="128" y="259" fill="#9ca3af" font-family="Inter, Arial, sans-serif" font-size="16">Logs</text>
  <text x="128" y="313" fill="#9ca3af" font-family="Inter, Arial, sans-serif" font-size="16">Env vars</text>
  <text x="128" y="367" fill="#9ca3af" font-family="Inter, Arial, sans-serif" font-size="16">Domains</text>
  <text x="332" y="146" fill="#111827" font-family="Inter, Arial, sans-serif" font-size="30" font-weight="700">Latest deployment</text>
  <rect x="332" y="190" width="520" height="330" rx="18" fill="#f3f4f6" stroke="#e5e7eb"/>
  <rect x="366" y="224" width="452" height="252" rx="14" fill="#ffffff" stroke="#d1d5db"/>
  <rect x="400" y="262" width="220" height="22" rx="11" fill="#cbd5e1"/>
  <rect x="400" y="316" width="350" height="18" rx="9" fill="#e5e7eb"/>
  <rect x="400" y="358" width="280" height="18" rx="9" fill="#e5e7eb"/>
  <rect x="400" y="414" width="128" height="42" rx="12" fill="#2563eb"/>
  <text x="432" y="441" fill="#ffffff" font-family="Inter, Arial, sans-serif" font-size="16" font-weight="700">Visit app</text>
  <rect x="900" y="190" width="424" height="330" rx="18" fill="#f8fafc" stroke="#e5e7eb"/>
  <text x="938" y="248" fill="#111827" font-family="Inter, Arial, sans-serif" font-size="22" font-weight="700">Status</text>
  <rect x="938" y="278" width="92" height="32" rx="16" fill="#dcfce7"/>
  <text x="960" y="300" fill="#166534" font-family="Inter, Arial, sans-serif" font-size="14" font-weight="700">Ready</text>
  <text x="938" y="370" fill="#6b7280" font-family="Inter, Arial, sans-serif" font-size="16">Domains</text>
  <rect x="938" y="396" width="304" height="18" rx="9" fill="#dbeafe"/>
  <rect x="938" y="430" width="254" height="18" rx="9" fill="#e5e7eb"/>
  <rect x="332" y="580" width="992" height="118" rx="18" fill="#f8fafc" stroke="#e5e7eb"/>
  <text x="370" y="628" fill="#111827" font-family="Inter, Arial, sans-serif" font-size="22" font-weight="700">Deployment history</text>
  <rect x="370" y="660" width="850" height="16" rx="8" fill="#d1d5db"/>
</svg>
