<svg viewBox="0 0 32 32" fill="none" xmlns="http://www.w3.org/2000/svg">
  <path d="M14.9392 3.86594C15.1752 2.71135 16.8248 2.71135 17.0608 3.86594L18.7968 12.3592C18.8837 12.7842 19.2158 13.1163 19.6408 13.2032L28.1341 14.9392C29.2886 15.1752 29.2886 16.8248 28.1341 17.0608L19.6408 18.7968C19.2158 18.8837 18.8837 19.2158 18.7968 19.6408L17.0608 28.1341C16.8248 29.2886 15.1752 29.2886 14.9392 28.1341L13.2032 19.6408C13.1163 19.2158 12.7842 18.8837 12.3592 18.7968L3.86594 17.0608C2.71135 16.8248 2.71135 15.1752 3.86594 14.9392L12.3592 13.2032C12.7842 13.1163 13.1163 12.7842 13.2032 12.3592L14.9392 3.86594Z" fill="currentColor"/>
  <path d="M25.6736 2.26644C25.7462 1.91119 26.2538 1.91119 26.3264 2.26644L26.8606 4.87975C26.8873 5.01052 26.9895 5.11272 27.1202 5.13945L29.7336 5.67359C30.0888 5.7462 30.0888 6.2538 29.7336 6.32641L27.1202 6.86055C26.9895 6.88728 26.8873 6.98947 26.8606 7.12025L26.3264 9.73356C26.2538 10.0888 25.7462 10.0888 25.6736 9.73356L25.1394 7.12025C25.1127 6.98948 25.0105 6.88728 24.8798 6.86055L22.2664 6.32641C21.9112 6.2538 21.9112 5.7462 22.2664 5.67359L24.8798 5.13945C25.0105 5.11272 25.1127 5.01053 25.1394 4.87975L25.6736 2.26644Z" fill="currentColor"/>
</svg>
