<svg width="32" height="32" viewBox="0 0 32 32" fill="none" xmlns="http://www.w3.org/2000/svg">
<path d="M21.4257 25.8023C21.3426 25.8462 21.3473 25.8639 21.4303 25.8219C21.4547 25.8115 21.4768 25.7966 21.4957 25.7781C21.4957 25.7631 21.4938 25.765 21.4257 25.8023ZM21.5918 25.7146C21.5526 25.7454 21.5526 25.7473 21.6002 25.723C21.6263 25.7099 21.6487 25.695 21.6487 25.6903C21.6487 25.6726 21.6375 25.6773 21.5918 25.7146ZM21.701 25.6483C21.6618 25.6791 21.6618 25.681 21.7094 25.6567C21.7355 25.6437 21.7579 25.6287 21.7579 25.6241C21.7579 25.6063 21.7467 25.611 21.701 25.6483ZM21.8102 25.583C21.771 25.6138 21.771 25.6157 21.8186 25.5914C21.8447 25.5783 21.8671 25.5634 21.8671 25.5587C21.8671 25.541 21.8559 25.5457 21.8102 25.583ZM21.9614 25.485C21.8849 25.5335 21.8606 25.5662 21.9287 25.5289C21.9773 25.5009 22.0557 25.4411 22.0426 25.4393C22.014 25.4516 21.9868 25.4669 21.9614 25.485ZM15.2666 4.80606C15.2181 4.81073 15.065 4.82566 14.9269 4.83686C11.7461 5.1234 8.76595 6.8398 6.87875 9.47833C5.83543 10.9265 5.15728 12.6053 4.90195 14.3718C4.81235 14.9869 4.80115 15.1689 4.80115 16.0033C4.80115 16.8377 4.81235 17.0187 4.90195 17.6347C5.51048 21.8403 8.50368 25.3739 12.5627 26.6834C13.2898 26.9177 14.0561 27.0773 14.9269 27.1734C15.2666 27.2107 16.7329 27.2107 17.0726 27.1734C18.5762 27.0073 19.8511 26.6349 21.1074 25.9937C21.2997 25.8947 21.337 25.8686 21.3109 25.8471C20.6972 25.0363 20.0893 24.2212 19.4871 23.4018L17.6961 20.9826L15.4523 17.6618C14.7063 16.5506 13.9531 15.4443 13.1927 14.3429C13.1843 14.341 13.175 15.8166 13.1713 17.6179C13.1647 20.7726 13.1629 20.8995 13.1227 20.9742C13.0847 21.0614 13.0164 21.132 12.9305 21.173C12.8605 21.2085 12.7989 21.215 12.4685 21.215H12.0895L11.9887 21.1515C11.9266 21.1123 11.876 21.0572 11.8422 20.9919L11.7965 20.893L11.8011 16.5035L11.8077 12.1122L11.8758 12.0273C11.9216 11.9735 11.9766 11.9283 12.0382 11.8938C12.1278 11.8499 12.1633 11.8453 12.5422 11.8453C12.9893 11.8453 13.063 11.863 13.1797 11.9899C14.0879 13.3416 14.9886 14.6984 15.8817 16.0602C17.3358 18.2647 19.3229 21.2747 20.3001 22.7531L22.0734 25.4393L22.163 25.3805C23.0163 24.8129 23.79 24.134 24.4637 23.3617C25.8748 21.7467 26.79 19.7588 27.0994 17.6366C27.189 17.0215 27.2002 16.8395 27.2002 16.0051C27.2002 15.1707 27.189 14.9897 27.0994 14.3737C26.4909 10.1681 23.4977 6.63446 19.4386 5.325C18.6801 5.0835 17.8989 4.91994 17.1071 4.83686C16.8971 4.8154 15.4495 4.79113 15.2685 4.80886L15.2666 4.80606ZM19.8511 11.5802C19.9033 11.6064 19.9498 11.6428 19.9878 11.6872C20.0258 11.7316 20.0545 11.7831 20.0723 11.8387C20.0901 11.8957 20.0938 13.1127 20.0901 15.8558L20.0835 19.7926L19.3891 18.7286L18.6929 17.6646V14.803C18.6929 12.9531 18.7013 11.9134 18.7143 11.863C18.7302 11.8048 18.7575 11.7504 18.7947 11.703C18.8319 11.6555 18.8782 11.616 18.9309 11.5867C19.0205 11.541 19.0531 11.5363 19.3975 11.5363C19.7214 11.5363 19.7783 11.541 19.8511 11.5802Z" fill="white"/>
</svg>
