<svg width="32" height="32" viewBox="0 0 32 32" fill="none" xmlns="http://www.w3.org/2000/svg">
<path d="M18.1431 15.9805C18.1431 14.833 17.1837 13.9026 16 13.9026C14.8165 13.9026 13.8569 14.833 13.8569 15.9805C13.8569 17.1282 14.8165 18.0585 16 18.0585C17.1837 18.0585 18.1431 17.1282 18.1431 15.9805Z" fill="white"/>
<path fill-rule="evenodd" clip-rule="evenodd" d="M22.9603 12.1231C23.4129 10.3399 23.9818 7.03328 21.9763 5.91222C19.9802 4.79606 17.3827 6.93484 16.0111 8.21864C14.6435 6.94763 11.973 4.81799 9.9693 5.94261C7.97401 7.06252 8.58931 10.3143 9.05192 12.1087C7.19065 12.6212 4 13.7252 4 15.9808C4 18.23 7.18733 19.4311 9.03758 19.9432C8.57326 21.7475 7.98877 24.9528 9.98662 26.0703C11.9978 27.1947 14.66 25.1157 16.0443 23.8179C17.4247 25.1092 19.9973 27.2018 21.9938 26.0812C23.9965 24.9571 23.4749 21.6948 23.0122 19.8901C24.8058 19.3769 28 18.2019 28 15.9808C28 13.7469 24.7922 12.6339 22.9603 12.1231ZM22.733 18.9337C22.4292 18.0014 22.0192 17.0099 21.5177 15.9858C21.9964 14.9858 22.3905 14.0071 22.6858 13.0808C24.0287 13.4583 26.9748 14.3211 26.9748 15.9808C26.9748 17.6561 24.1477 18.5271 22.733 18.9337ZM21.48 25.2209C19.9904 26.0569 17.7777 24.0558 16.7582 23.1048C17.4346 22.3876 18.1104 21.5539 18.77 20.628C19.9303 20.5283 21.0264 20.3651 22.0205 20.1423C22.3461 21.4188 22.9762 24.3811 21.48 25.2209ZM10.4989 25.209C9.00914 24.3761 9.69006 21.5158 10.0317 20.1867C11.0147 20.3976 12.1029 20.5493 13.2659 20.6407C13.9298 21.5467 14.6253 22.3794 15.3261 23.1087C14.4602 23.9207 11.9956 26.0457 10.4989 25.209ZM5.02519 15.9808C5.02519 14.2993 7.95366 13.4427 9.32723 13.0662C9.62761 14.0133 10.0216 15.0036 10.497 16.0051C10.0154 17.0214 9.61582 18.0274 9.31268 18.9857C8.00295 18.6222 5.02519 17.6634 5.02519 15.9808ZM10.483 6.80293C11.9788 5.96342 14.2998 8.00796 15.2927 8.9282C14.5955 9.65413 13.9065 10.4806 13.2482 11.3813C12.1195 11.4827 11.039 11.6456 10.0457 11.8639C9.673 10.4167 8.98874 7.64153 10.483 6.80293ZM19.5034 12.4618C20.2692 12.5555 21.0029 12.6801 21.6918 12.8326C21.485 13.4753 21.2272 14.1474 20.9236 14.8363C20.4835 14.0267 20.0111 13.2334 19.5034 12.4618ZM16.0114 9.63858C16.4843 10.1353 16.9579 10.6899 17.4238 11.2917C16.4788 11.2483 15.5322 11.2482 14.5872 11.2911C15.0535 10.6949 15.5312 10.141 16.0114 9.63858ZM11.0852 14.8356C10.7866 14.1491 10.5312 13.474 10.3226 12.8221C11.0073 12.6735 11.7376 12.5521 12.4984 12.4599C11.9893 13.2299 11.5177 14.0229 11.0852 14.8356ZM12.5202 19.5727C11.7343 19.4876 10.993 19.3723 10.3084 19.2279C10.5204 18.5645 10.7814 17.8749 11.0864 17.1735C11.5248 17.9947 12.0036 18.7955 12.5202 19.5727ZM16.0398 22.3933C15.5539 21.8849 15.0692 21.3226 14.5958 20.7178C15.5462 20.7539 16.4985 20.754 17.4488 20.7129C16.9814 21.3287 16.5095 21.8919 16.0398 22.3933ZM20.9334 17.1379C21.2542 17.8468 21.5246 18.5327 21.7394 19.1848C21.0434 19.3388 20.2922 19.4628 19.5006 19.5549C20.012 18.7687 20.4919 17.963 20.9334 17.1379ZM18.1978 19.6754C16.7441 19.7761 15.2813 19.775 13.827 19.6836C13.0007 18.5133 12.2651 17.2825 11.6302 16.0047C12.2621 14.7296 12.9923 13.5012 13.8147 12.3327C15.27 12.2261 16.7342 12.2258 18.1895 12.3334C19.0049 13.5018 19.734 14.727 20.3806 15.9906C19.7417 17.2651 19.0076 18.4959 18.1978 19.6754ZM21.4642 6.77338C22.9605 7.61013 22.2945 10.5819 21.9676 11.8742C20.9719 11.6514 19.8906 11.4856 18.7586 11.3826C18.0991 10.4721 17.4158 9.64424 16.7299 8.92769C17.7356 7.98762 19.9825 5.94481 21.4642 6.77338Z" fill="white"/>
</svg>
