<svg width="32" height="32" viewBox="0 0 32 32" fill="none" xmlns="http://www.w3.org/2000/svg">
<path fill-rule="evenodd" clip-rule="evenodd" d="M22.177 8.89821C22.9949 10.1578 23.0794 11.5235 22.6614 12.5579C21.8903 11.8293 20.9663 11.3073 19.9966 11.0505C20.0081 10.8364 19.9543 10.6168 19.8286 10.4232C19.5128 9.93686 18.8625 9.79864 18.3762 10.1145L16.0299 11.6382C16.0292 11.6386 16.0286 11.639 16.0279 11.6395L12.5055 13.9269C12.0191 14.2428 11.8809 14.8931 12.1967 15.3794C12.5126 15.8658 13.1629 16.004 13.6492 15.6882L17.1726 13.4C17.1723 13.4002 17.173 13.3998 17.1726 13.4C18.5093 12.5329 20.6667 12.9989 21.9103 14.9139C23.1543 16.8294 22.702 18.9904 21.3654 19.8584L14.3205 24.4334C12.984 25.3014 10.8258 24.8356 9.58186 22.9201C8.76389 21.6605 8.67936 20.2948 9.09741 19.2604C9.86851 19.9891 10.7925 20.511 11.7621 20.7679C11.7507 20.9819 11.8044 21.2016 11.9301 21.3951C12.246 21.8814 12.8963 22.0198 13.3826 21.7039L19.2534 17.8914C19.7396 17.5756 19.8779 16.9253 19.5621 16.4389C19.2462 15.9526 18.5959 15.8144 18.1096 16.1302L14.5868 18.4179C14.5867 18.418 14.5869 18.4178 14.5868 18.4179C13.2502 19.2856 11.0923 18.8198 9.84847 16.9044C8.60453 14.9889 9.05686 12.8279 10.3934 11.9599L17.4383 7.38495C18.7748 6.51697 20.9329 6.9827 22.177 8.89821ZM24.0372 14.4077C25.3743 12.5612 25.3025 9.85542 23.9382 7.75447C22.2342 5.13077 18.8488 3.96503 16.2945 5.62374L9.24969 10.1987C6.89712 11.7265 6.44665 14.8732 7.72158 17.4106C6.38455 19.2571 6.45629 21.9629 7.82066 24.0639C9.52451 26.6876 12.9101 27.8533 15.4643 26.1946L22.5091 21.6196C24.8616 20.0918 25.3121 16.9451 24.0372 14.4077Z" fill="white"/>
</svg>
